<?xml version="1.0" encoding="UTF-8" standalone="no"?> <svg xmlns="http://www.w3.org/2000/svg" xmlns:xlink="http://www.w3.org/1999/xlink" width="33799px" height="1622px" viewBox="0 0 33799 1622"> <!-- Generator: Sketch 49.1 (51147) - http://www.bohemiancoding.com/sketch --> <title>Group 8 Copy</title> <desc>Created with Sketch.</desc> <defs></defs> <g id="Page-1" stroke="none" stroke-width="1" fill="none" fill-rule="evenodd"> <g id="Group-8-Copy"> <path d="M31644.5,829.5 L185.64,829.5" id="Line-3" stroke="#FFFFFF" stroke-width="40" stroke-dasharray="40,40"></path> <path d="M31459.5,1011.5 L0.639999994,1011.5" id="Line-3-Copy" stroke="#FFFFFF" stroke-width="40" stroke-dasharray="40,40"></path> <path d="M31459.5,635.5 L0.639999994,635.5" id="Line-3-Copy-2" stroke="#FFFFFF" stroke-width="40" stroke-dasharray="40,40"></path> <g id="Group-7" transform="translate(31811.000000, 0.000000)"> <path d="M304.75623,702.4971 L964.785547,686.93037 L815,0 L1024,0 L1251.93105,680.158071 L1740.42224,668.637052 C1779.8097,667.708103 1796.75329,671.854548 1813.159,680.035752 C1829.56471,688.216957 1842.62634,700.499104 1851.80029,716.371031 C1860.97423,732.242958 1866.1541,748.899699 1867.64745,788.269807 L1868.5,810.746067 C1871.35673,886.05978 1812.61873,949.429442 1737.30502,952.286169 C1734.51647,952.391942 1731.72534,952.412156 1728.93555,952.346783 L1252.2747,941.177226 L1024,1622 L815,1622 L965,937.437758 L965,934.44554 L313.417768,919.177064 L130.185819,1094 L0,1094 L144.814181,814.220127 L143.814181,817.463336 L0,527 L130.185819,527 L304.75623,702.4971 Z" id="Combined-Shape-Copy-2" fill="#000000"></path> <path d="M1749.6532,952.306397 C1828.43838,952.306397 1988,948.438385 1988,869.653199 C1988,832.689156 1951.68147,800.20375 1915.60369,765.514671 C1874.78527,726.267424 1821.47434,668 1779.6532,668 C1700.86801,668 1617,730.868013 1617,809.653199 C1617,888.438385 1670.86801,952.306397 1749.6532,952.306397 Z" id="Oval-3-Copy" fill="#000000"></path> <g id="Group-6-Copy" transform="translate(726.000000, 766.000000)" fill="#FFFFFF"> <circle id="Oval-4" cx="701.5" cy="35.5" r="35.5"></circle> <circle id="Oval-4-Copy" cx="590.5" cy="35.5" r="35.5"></circle> <circle id="Oval-4-Copy-2" cx="479.5" cy="35.5" r="35.5"></circle> <circle id="Oval-4-Copy-3" cx="368.5" cy="35.5" r="35.5"></circle> <circle id="Oval-4-Copy-4" cx="257.5" cy="35.5" r="35.5"></circle> <circle id="Oval-4-Copy-5" cx="146.5" cy="35.5" r="35.5"></circle> <circle id="Oval-4-Copy-6" cx="35.5" cy="35.5" r="35.5"></circle> </g> </g> </g> </g> </svg> 